<svg width="25" height="38" xmlns="http://www.w3.org/2000/svg"><path d="M22.892 10.842v-6.53c0-1.73-1.434-3.138-3.195-3.138H4.45c-1.762 0-3.195 1.408-3.195 3.138v3.766c0 .346.286.627.639.627h19.72v16.871c0 .346.286.628.639.628a.634.634 0 00.639-.628v-9.939c.486-.097.852-.52.852-1.025v-2.746a1.05 1.05 0 00-.852-1.024zM21.614 7.45H2.533V4.312c0-1.038.86-1.882 1.917-1.882h15.247c1.057 0 1.917.844 1.917 1.882V7.45zm.639 21.845H2.533v-15.87a.633.633 0 00-.639-.628.633.633 0 00-.639.627v20.264c0 1.73 1.433 3.138 3.195 3.138h15.247c1.761 0 3.195-1.408 3.195-3.138v-3.765a.633.633 0 00-.64-.628zm-.639 4.393c0 1.038-.86 1.883-1.917 1.883H4.45c-1.057 0-1.917-.845-1.917-1.883V30.55h19.081v3.138z" fill="#006883" stroke="#006883" stroke-width="1.5"/></svg>