<svg xmlns="http://www.w3.org/2000/svg" width="21.475" height="21.542"><path fill="#FFF" d="M60.45 68.738c-5.322 0-9.652 4.33-9.652 9.652 0 5.32 4.33 9.65 9.652 9.65s9.652-4.33 9.652-9.65c.001-5.322-4.33-9.652-9.652-9.652"/><path fill="none" stroke="#269982" stroke-width="1.5" stroke-miterlimit="10" d="M60.45 68.738c-5.322 0-9.652 4.33-9.652 9.652 0 5.32 4.33 9.65 9.652 9.65s9.652-4.33 9.652-9.65c.001-5.322-4.33-9.652-9.652-9.652z"/><path fill="#269982" d="M60.45 85.016c-2.59 0-4.967-1.754-6.36-4.692l1.025-.877c1.169 2.465 3.163 3.938 5.335 3.938s4.166-1.471 5.334-3.936l1.025.877c-1.392 2.937-3.77 4.69-6.359 4.69m-2.41-9.688a1.485 1.485 0 11-2.97 0 1.485 1.485 0 012.97 0m7.792 0a1.485 1.485 0 11-2.97 0 1.485 1.485 0 012.97 0"/><path fill="#FFF" d="M-2.827 78.365c0-5.561-4.507-10.066-10.066-10.066-5.561 0-10.066 4.507-10.066 10.066 0 5.561 4.507 10.066 10.066 10.066s10.066-4.508 10.066-10.066"/><circle fill="none" stroke="#D8C3BE" stroke-width=".5" stroke-miterlimit="10" cx="-12.894" cy="78.365" r="10.067"/><path fill="#046799" d="M-15.468 75.102a1.245 1.245 0 10-2.49 0 1.245 1.245 0 002.49 0m7.288.023a1.244 1.244 0 10-2.488 0 1.244 1.244 0 002.488 0"/><path fill="none" stroke="#046799" stroke-miterlimit="10" d="M-12.513 83.382c-2.086 0-3.772-1.994-3.772-3.994h7.123c0 2-1.688 3.884-3.771 3.884"/><path fill="none" stroke="#2B327B" stroke-miterlimit="10" d="M-13.175 68.841c-5.285 0-9.585 4.301-9.585 9.584 0 5.287 4.3 9.587 9.585 9.587s9.585-4.3 9.585-9.587c0-5.283-4.3-9.584-9.585-9.584z"/><path fill="#046799" d="M-13.175 89.104c-5.888 0-10.677-4.789-10.677-10.679 0-5.887 4.789-10.676 10.677-10.676 5.887 0 10.677 4.789 10.677 10.676 0 5.89-4.79 10.679-10.677 10.679m0-20.263c-5.285 0-9.585 4.301-9.585 9.584 0 5.287 4.3 9.587 9.585 9.587s9.585-4.3 9.585-9.587c0-5.283-4.3-9.584-9.585-9.584"/><path fill="#FFF" d="M98.373 127.031c-5.468 0-9.916 4.447-9.916 9.914 0 5.469 4.448 9.917 9.916 9.917s9.915-4.448 9.915-9.917c0-5.467-4.447-9.914-9.915-9.914"/><path fill="none" stroke="#F16A60" stroke-width="1.5" stroke-miterlimit="10" d="M98.373 127.031c-5.468 0-9.916 4.447-9.916 9.914 0 5.469 4.448 9.917 9.916 9.917s9.915-4.448 9.915-9.917c0-5.467-4.447-9.914-9.915-9.914z"/><path fill="#F16A60" d="M96.358 133.94a1.334 1.334 0 11-2.667 0 1.334 1.334 0 012.667 0m6.995 0a1.334 1.334 0 11-2.669 0 1.334 1.334 0 012.669 0m-4.935 3.698c1.909 0 3.661 1.382 4.688 3.697l-.755.69c-.86-1.942-2.331-3.103-3.933-3.103-1.601 0-3.07 1.16-3.932 3.102l-.755-.689c1.026-2.315 2.778-3.697 4.687-3.697"/><path fill="#FFA96E" d="M10.716 21.288C4.856 21.241.205 16.554.222 10.738A10.483 10.483 0 0110.774.255a10.48 10.48 0 0110.471 10.518c-.004 5.856-4.705 10.491-10.529 10.515m.039-19.765c-4.987-.01-9.25 3.968-9.262 9.224-.014 5.215 4.185 9.258 9.221 9.264 5.27.006 9.254-4.293 9.264-9.223.009-4.969-4.001-9.242-9.223-9.265"/><path fill="none" stroke="#FFA96E" stroke-width=".25" stroke-miterlimit="10" d="M10.716 21.288C4.856 21.241.205 16.554.222 10.738A10.483 10.483 0 0110.774.255a10.48 10.48 0 0110.471 10.518c-.004 5.856-4.705 10.491-10.529 10.515zm.039-19.765c-4.987-.01-9.25 3.968-9.262 9.224-.014 5.215 4.185 9.258 9.221 9.264 5.27.006 9.254-4.293 9.264-9.223.009-4.969-4.001-9.242-9.223-9.265z"/><path fill="#FFA96E" d="M10.666 13.094c1.921.059 3.433.75 4.61 2.145.088.104.172.217.234.336a.613.613 0 01-.178.775.655.655 0 01-.803-.021c-.078-.07-.143-.158-.209-.24-.859-1.041-1.971-1.621-3.31-1.697-1.5-.086-2.766.455-3.772 1.58-.091.102-.169.215-.266.313a.643.643 0 01-.832.076.634.634 0 01-.179-.816 1.38 1.38 0 01.185-.258c.96-1.162 2.176-1.877 3.67-2.104.316-.05.634-.067.85-.089"/><path fill="none" stroke="#FFA96E" stroke-width=".25" stroke-miterlimit="10" d="M10.666 13.094c1.921.059 3.433.75 4.61 2.145.088.104.172.217.234.336a.613.613 0 01-.178.775.655.655 0 01-.803-.021c-.078-.07-.143-.158-.209-.24-.859-1.041-1.971-1.621-3.31-1.697-1.5-.086-2.766.455-3.772 1.58-.091.102-.169.215-.266.313a.643.643 0 01-.832.076.634.634 0 01-.179-.816 1.38 1.38 0 01.185-.258c.96-1.162 2.176-1.877 3.67-2.104.316-.05.634-.067.85-.089z"/><path fill="#FFA96E" d="M14.116 9.183c-.645.019-1.158-.527-1.158-1.154.002-.633.535-1.167 1.166-1.157a1.166 1.166 0 011.152 1.166c0 .611-.517 1.172-1.16 1.145"/><path fill="none" stroke="#FFA96E" stroke-width=".25" stroke-miterlimit="10" d="M14.116 9.183c-.645.019-1.158-.527-1.158-1.154.002-.633.535-1.167 1.166-1.157a1.166 1.166 0 011.152 1.166c0 .611-.517 1.172-1.16 1.145z"/><path fill="#FFA96E" d="M7.323 9.183c-.521.023-1.145-.416-1.135-1.171a1.15 1.15 0 011.175-1.14c.619.02 1.15.492 1.137 1.181a1.126 1.126 0 01-1.177 1.13"/><path fill="none" stroke="#FFA96E" stroke-width=".25" stroke-miterlimit="10" d="M7.323 9.183c-.521.023-1.145-.416-1.135-1.171a1.15 1.15 0 011.175-1.14c.619.02 1.15.492 1.137 1.181a1.126 1.126 0 01-1.177 1.13z"/></svg>