<svg xmlns="http://www.w3.org/2000/svg" width="21.475" height="21.542"><path fill="#FFF" d="M98.373 127.031c-5.468 0-9.916 4.447-9.916 9.914 0 5.469 4.448 9.917 9.916 9.917s9.915-4.448 9.915-9.917c0-5.467-4.447-9.914-9.915-9.914"/><path fill="none" stroke="#F16A60" stroke-width="1.5" stroke-miterlimit="10" d="M98.373 127.031c-5.468 0-9.916 4.447-9.916 9.914 0 5.469 4.448 9.917 9.916 9.917s9.915-4.448 9.915-9.917c0-5.467-4.447-9.914-9.915-9.914z"/><path fill="#F16A60" d="M96.358 133.94a1.334 1.334 0 11-2.667 0 1.334 1.334 0 012.667 0m6.995 0a1.334 1.334 0 11-2.669 0 1.334 1.334 0 012.669 0m-4.935 3.698c1.909 0 3.661 1.382 4.688 3.697l-.755.69c-.86-1.942-2.331-3.103-3.933-3.103-1.601 0-3.07 1.16-3.932 3.102l-.755-.689c1.026-2.315 2.778-3.697 4.687-3.697"/><path fill="#89C58F" d="M10.728 21.314C4.853 21.267.19 16.566.208 10.738A10.508 10.508 0 0110.786.229c5.77.02 10.5 4.651 10.497 10.544-.003 5.871-4.716 10.516-10.555 10.541m.037-19.813c-4.999-.011-9.271 3.978-9.284 9.246-.014 5.225 4.196 9.28 9.244 9.286 5.282.008 9.278-4.305 9.288-9.245.01-4.981-4.011-9.265-9.248-9.287"/><path fill="none" stroke="#89C58F" stroke-width=".25" stroke-miterlimit="10" d="M10.728 21.314C4.853 21.267.19 16.566.208 10.738A10.508 10.508 0 0110.786.229c5.77.02 10.5 4.651 10.497 10.544-.003 5.871-4.716 10.516-10.555 10.541zm.037-19.813c-4.999-.011-9.271 3.978-9.284 9.246-.014 5.225 4.196 9.28 9.244 9.286 5.282.008 9.278-4.305 9.288-9.245.01-4.981-4.011-9.265-9.248-9.287z"/><path fill="#89C58F" d="M10.812 16.492c-1.926-.059-3.443-.752-4.624-2.152a1.845 1.845 0 01-.235-.334.617.617 0 01.178-.777.65.65 0 01.804.021c.079.068.142.158.21.24.862 1.043 1.975 1.625 3.317 1.703 1.505.086 2.774-.457 3.782-1.586.092-.104.17-.215.267-.313a.639.639 0 01.833-.076.634.634 0 01.181.816c-.049.096-.118.18-.185.26-.963 1.164-2.183 1.883-3.68 2.109-.314.05-.633.067-.848.089"/><path fill="none" stroke="#89C58F" stroke-width=".25" stroke-miterlimit="10" d="M10.812 16.492c-1.926-.059-3.443-.752-4.624-2.152a1.845 1.845 0 01-.235-.334.617.617 0 01.178-.777.65.65 0 01.804.021c.079.068.142.158.21.24.862 1.043 1.975 1.625 3.317 1.703 1.505.086 2.774-.457 3.782-1.586.092-.104.17-.215.267-.313a.639.639 0 01.833-.076.634.634 0 01.181.816c-.049.096-.118.18-.185.26-.963 1.164-2.183 1.883-3.68 2.109-.314.05-.633.067-.848.089z"/><path fill="#89C58F" d="M14.135 9.18c-.645.019-1.159-.528-1.159-1.157.002-.635.535-1.169 1.167-1.16a1.167 1.167 0 011.155 1.168c.001.613-.517 1.176-1.163 1.149"/><path fill="none" stroke="#89C58F" stroke-width=".25" stroke-miterlimit="10" d="M14.135 9.18c-.645.019-1.159-.528-1.159-1.157.002-.635.535-1.169 1.167-1.16a1.167 1.167 0 011.155 1.168c.001.613-.517 1.176-1.163 1.149z"/><path fill="#89C58F" d="M7.326 9.18c-.523.023-1.148-.417-1.138-1.175a1.155 1.155 0 011.179-1.142c.62.02 1.153.492 1.14 1.184A1.13 1.13 0 017.326 9.18"/><path fill="none" stroke="#89C58F" stroke-width=".25" stroke-miterlimit="10" d="M7.326 9.18c-.523.023-1.148-.417-1.138-1.175a1.155 1.155 0 011.179-1.142c.62.02 1.153.492 1.14 1.184A1.13 1.13 0 017.326 9.18z"/></svg>