<svg xmlns="http://www.w3.org/2000/svg" width="21.475" height="21.542"><path fill="#F1695F" d="M21.315 10.759c-.037 6.111-4.981 10.543-10.489 10.588C5.213 21.396.183 16.921.159 10.805.137 4.871 4.906.234 10.664.195a10.579 10.579 0 0110.651 10.564m-19.889.015c.059 5.471 4.506 9.282 9.265 9.297 5.04.018 9.338-4.084 9.342-9.304.004-4.963-3.99-9.292-9.303-9.294-5.097-.003-9.26 4.076-9.304 9.301"/><path fill="none" stroke="#F1695F" stroke-width=".25" stroke-miterlimit="10" d="M21.315 10.759c-.037 6.111-4.981 10.543-10.489 10.588C5.213 21.396.183 16.921.159 10.805.137 4.871 4.906.234 10.664.195a10.579 10.579 0 0110.651 10.564zm-19.889.015c.059 5.471 4.506 9.282 9.265 9.297 5.04.018 9.338-4.084 9.342-9.304.004-4.963-3.99-9.292-9.303-9.294-5.097-.003-9.26 4.076-9.304 9.301z"/><path fill="#F1695F" d="M14.253 9.513c-.647.02-1.165-.531-1.163-1.162 0-.637.535-1.174 1.17-1.165.693.011 1.161.58 1.161 1.173 0 .616-.521 1.181-1.168 1.154"/><path fill="none" stroke="#F1695F" stroke-width=".25" stroke-miterlimit="10" d="M14.253 9.513c-.647.02-1.165-.531-1.163-1.162 0-.637.535-1.174 1.17-1.165.693.011 1.161.58 1.161 1.173 0 .616-.521 1.181-1.168 1.154z"/><path fill="#F1695F" d="M7.418 9.512c-.525.024-1.152-.418-1.141-1.178A1.157 1.157 0 017.46 7.188c.623.019 1.157.494 1.144 1.188a1.134 1.134 0 01-1.186 1.136"/><path fill="none" stroke="#F1695F" stroke-width=".25" stroke-miterlimit="10" d="M7.418 9.512c-.525.024-1.152-.418-1.141-1.178A1.157 1.157 0 017.46 7.188c.623.019 1.157.494 1.144 1.188a1.134 1.134 0 01-1.186 1.136z"/><path fill="#F1695F" d="M10.986 11.16c2.361.073 4.216.921 5.664 2.636.107.127.212.262.288.41a.76.76 0 01-.219.955.798.798 0 01-.984-.029c-.098-.086-.175-.193-.257-.293-1.058-1.279-2.419-1.99-4.065-2.086-1.843-.105-3.398.561-4.634 1.941-.113.126-.209.268-.328.386a.79.79 0 01-1.021.092.78.78 0 01-.221-1.002c.061-.115.145-.219.228-.318 1.179-1.424 2.673-2.307 4.508-2.583.385-.059.776-.081 1.041-.109"/><path fill="none" stroke="#F1695F" stroke-width=".25" stroke-miterlimit="10" d="M10.986 11.16c2.361.073 4.216.921 5.664 2.636.107.127.212.262.288.41a.76.76 0 01-.219.955.798.798 0 01-.984-.029c-.098-.086-.175-.193-.257-.293-1.058-1.279-2.419-1.99-4.065-2.086-1.843-.105-3.398.561-4.634 1.941-.113.126-.209.268-.328.386a.79.79 0 01-1.021.092.78.78 0 01-.221-1.002c.061-.115.145-.219.228-.318 1.179-1.424 2.673-2.307 4.508-2.583.385-.059.776-.081 1.041-.109z"/><path fill="#F1695F" d="M13.491 5.217c.754-.337.893-.401 1.647-.737.099-.044.194-.093.296-.127a.648.648 0 01.813.325.641.641 0 01-.287.825c-.093.053-.192.093-.29.137l-2.243 1.003c-.11.05-.223.105-.339.141-.319.1-.617-.038-.758-.342a.618.618 0 01.235-.8c.104-.064.219-.109.332-.159l.594-.266"/><path fill="none" stroke="#F1695F" stroke-width=".25" stroke-miterlimit="10" d="M13.491 5.217c.754-.337.893-.401 1.647-.737.099-.044.194-.093.296-.127a.648.648 0 01.813.325.641.641 0 01-.287.825c-.093.053-.192.093-.29.137l-2.243 1.003c-.11.05-.223.105-.339.141-.319.1-.617-.038-.758-.342a.618.618 0 01.235-.8c.104-.064.219-.109.332-.159l.594-.266z"/><path fill="#F1695F" d="M8.214 5.217l-1.648-.738c-.098-.043-.193-.092-.294-.126-.331-.114-.676.026-.812.325-.139.301-.019.652.285.824.094.053.193.094.29.138l2.244 1.003c.11.05.221.105.337.141.32.1.618-.038.757-.342a.615.615 0 00-.235-.8c-.102-.064-.218-.109-.329-.159-.78-.35.186.083-.595-.266"/><path fill="none" stroke="#F1695F" stroke-width=".25" stroke-miterlimit="10" d="M8.214 5.217l-1.648-.738c-.098-.043-.193-.092-.294-.126-.331-.114-.676.026-.812.325-.139.301-.019.652.285.824.094.053.193.094.29.138l2.244 1.003c.11.05.221.105.337.141.32.1.618-.038.757-.342a.615.615 0 00-.235-.8c-.102-.064-.218-.109-.329-.159-.78-.35.186.083-.595-.266z"/></svg>