<svg xmlns="http://www.w3.org/2000/svg" width="21.475" height="21.542"><path fill="#FFF" d="M60.45 68.738c-5.322 0-9.652 4.33-9.652 9.652 0 5.32 4.33 9.65 9.652 9.65s9.652-4.33 9.652-9.65c.001-5.322-4.33-9.652-9.652-9.652"/><path fill="none" stroke="#269982" stroke-width="1.5" stroke-miterlimit="10" d="M60.45 68.738c-5.322 0-9.652 4.33-9.652 9.652 0 5.32 4.33 9.65 9.652 9.65s9.652-4.33 9.652-9.65c.001-5.322-4.33-9.652-9.652-9.652z"/><path fill="#269982" d="M60.45 85.016c-2.59 0-4.967-1.754-6.36-4.692l1.025-.877c1.169 2.465 3.163 3.938 5.335 3.938s4.166-1.471 5.334-3.936l1.025.877c-1.392 2.937-3.77 4.69-6.359 4.69m-2.41-9.688a1.485 1.485 0 11-2.97 0 1.485 1.485 0 012.97 0m7.792 0a1.485 1.485 0 11-2.97 0 1.485 1.485 0 012.97 0"/><path fill="#FFF" d="M101.688 12.304c-5.622 0-10.195 4.574-10.195 10.195s4.573 10.196 10.195 10.196 10.195-4.575 10.195-10.196-4.573-10.195-10.195-10.195"/><path fill="none" stroke="#FEC96F" stroke-width="1.5" stroke-miterlimit="10" d="M101.688 12.304c-5.622 0-10.195 4.574-10.195 10.195s4.573 10.196 10.195 10.196 10.195-4.575 10.195-10.196-4.573-10.195-10.195-10.195z"/><path fill="#FEC96F" d="M98.903 19.55a1.41 1.41 0 11-2.82 0 1.41 1.41 0 012.82 0m7.398 0a1.41 1.41 0 11-2.82 0 1.41 1.41 0 012.82 0m-8.208 5.214h9.06v1.129h-9.06z"/><path fill="#FFF" d="M-2.827 78.365c0-5.561-4.507-10.066-10.066-10.066-5.561 0-10.066 4.507-10.066 10.066 0 5.561 4.507 10.066 10.066 10.066s10.066-4.508 10.066-10.066"/><circle fill="none" stroke="#D8C3BE" stroke-width=".5" stroke-miterlimit="10" cx="-12.894" cy="78.365" r="10.067"/><path fill="#046799" d="M-15.468 75.102a1.245 1.245 0 10-2.49 0 1.245 1.245 0 002.49 0m7.288.023a1.244 1.244 0 10-2.488 0 1.244 1.244 0 002.488 0"/><path fill="none" stroke="#046799" stroke-miterlimit="10" d="M-12.513 83.382c-2.086 0-3.772-1.994-3.772-3.994h7.123c0 2-1.688 3.884-3.771 3.884"/><path fill="none" stroke="#2B327B" stroke-miterlimit="10" d="M-13.175 68.841c-5.285 0-9.585 4.301-9.585 9.584 0 5.287 4.3 9.587 9.585 9.587s9.585-4.3 9.585-9.587c0-5.283-4.3-9.584-9.585-9.584z"/><path fill="#046799" d="M-13.175 89.104c-5.888 0-10.677-4.789-10.677-10.679 0-5.887 4.789-10.676 10.677-10.676 5.887 0 10.677 4.789 10.677 10.676 0 5.89-4.79 10.679-10.677 10.679m0-20.263c-5.285 0-9.585 4.301-9.585 9.584 0 5.287 4.3 9.587 9.585 9.587s9.585-4.3 9.585-9.587c0-5.283-4.3-9.584-9.585-9.584"/><path fill="#FFF" d="M98.373 127.031c-5.468 0-9.916 4.447-9.916 9.914 0 5.469 4.448 9.917 9.916 9.917s9.915-4.448 9.915-9.917c0-5.467-4.447-9.914-9.915-9.914"/><path fill="none" stroke="#F16A60" stroke-width="1.5" stroke-miterlimit="10" d="M98.373 127.031c-5.468 0-9.916 4.447-9.916 9.914 0 5.469 4.448 9.917 9.916 9.917s9.915-4.448 9.915-9.917c0-5.467-4.447-9.914-9.915-9.914z"/><path fill="#F16A60" d="M96.358 133.94a1.334 1.334 0 11-2.667 0 1.334 1.334 0 012.667 0m6.995 0a1.334 1.334 0 11-2.669 0 1.334 1.334 0 012.669 0m-4.935 3.698c1.909 0 3.661 1.382 4.688 3.697l-.755.69c-.86-1.942-2.331-3.103-3.933-3.103-1.601 0-3.07 1.16-3.932 3.102l-.755-.689c1.026-2.315 2.778-3.697 4.687-3.697"/><path fill="#EDD870" d="M10.719 21.317C4.844 21.27.182 16.573.199 10.741A10.512 10.512 0 0110.778.233c5.77.02 10.5 4.651 10.497 10.544-.004 5.873-4.717 10.515-10.556 10.54m.039-19.812c-4.999-.01-9.271 3.977-9.285 9.245-.014 5.228 4.195 9.278 9.243 9.286 5.284.006 9.278-4.304 9.287-9.245.009-4.978-4.008-9.263-9.245-9.286"/><path fill="none" stroke="#EDD870" stroke-width=".25" stroke-miterlimit="10" d="M10.719 21.317C4.844 21.27.182 16.573.199 10.741A10.512 10.512 0 0110.778.233c5.77.02 10.5 4.651 10.497 10.544-.004 5.873-4.717 10.515-10.556 10.54zm.039-19.812c-4.999-.01-9.271 3.977-9.285 9.245-.014 5.228 4.195 9.278 9.243 9.286 5.284.006 9.278-4.304 9.287-9.245.009-4.978-4.008-9.263-9.245-9.286z"/><path fill="#EDD870" d="M14.129 9.184c-.645.019-1.162-.528-1.16-1.158a1.17 1.17 0 011.167-1.159 1.169 1.169 0 011.155 1.167c0 .615-.519 1.177-1.162 1.15"/><path fill="none" stroke="#EDD870" stroke-width=".25" stroke-miterlimit="10" d="M14.129 9.184c-.645.019-1.162-.528-1.16-1.158a1.17 1.17 0 011.167-1.159 1.169 1.169 0 011.155 1.167c0 .615-.519 1.177-1.162 1.15z"/><path fill="#EDD870" d="M7.318 9.184c-.524.024-1.148-.416-1.137-1.174a1.152 1.152 0 011.177-1.142c.621.02 1.153.492 1.141 1.183a1.13 1.13 0 01-1.181 1.133"/><path fill="none" stroke="#EDD870" stroke-width=".25" stroke-miterlimit="10" d="M7.318 9.184c-.524.024-1.148-.416-1.137-1.174a1.152 1.152 0 011.177-1.142c.621.02 1.153.492 1.141 1.183a1.13 1.13 0 01-1.181 1.133z"/><path fill="#EDD870" d="M10.306 14.203h3.707c.106 0 .212-.004.318.004.348.031.604.3.606.628.002.331-.248.6-.596.633-.105.01-.212.007-.319.007H7.758c-.122 0-.245.004-.366-.01a.599.599 0 01-.549-.618c-.002-.329.213-.591.539-.632.12-.018.244-.012.365-.012h2.559"/><path fill="none" stroke="#EDD870" stroke-width=".25" stroke-miterlimit="10" d="M10.306 14.203h3.707c.106 0 .212-.004.318.004.348.031.604.3.606.628.002.331-.248.6-.596.633-.105.01-.212.007-.319.007H7.758c-.122 0-.245.004-.366-.01a.599.599 0 01-.549-.618c-.002-.329.213-.591.539-.632.12-.018.244-.012.365-.012h2.559z"/></svg>