<svg xmlns="http://www.w3.org/2000/svg" width="21.475" height="21.542"><path fill="#FFF" d="M60.45 68.738c-5.322 0-9.652 4.33-9.652 9.652 0 5.32 4.33 9.65 9.652 9.65s9.652-4.33 9.652-9.65c.001-5.322-4.33-9.652-9.652-9.652"/><path fill="none" stroke="#269982" stroke-width="1.5" stroke-miterlimit="10" d="M60.45 68.738c-5.322 0-9.652 4.33-9.652 9.652 0 5.32 4.33 9.65 9.652 9.65s9.652-4.33 9.652-9.65c.001-5.322-4.33-9.652-9.652-9.652z"/><path fill="#269982" d="M60.45 85.016c-2.59 0-4.967-1.754-6.36-4.692l1.025-.877c1.169 2.465 3.163 3.938 5.335 3.938s4.166-1.471 5.334-3.936l1.025.877c-1.392 2.937-3.77 4.69-6.359 4.69m-2.41-9.688a1.485 1.485 0 11-2.97 0 1.485 1.485 0 012.97 0m7.792 0a1.485 1.485 0 11-2.97 0 1.485 1.485 0 012.97 0"/><path fill="#FFF" d="M98.373 127.031c-5.468 0-9.916 4.447-9.916 9.914 0 5.469 4.448 9.917 9.916 9.917s9.915-4.448 9.915-9.917c0-5.467-4.447-9.914-9.915-9.914"/><path fill="none" stroke="#F16A60" stroke-width="1.5" stroke-miterlimit="10" d="M98.373 127.031c-5.468 0-9.916 4.447-9.916 9.914 0 5.469 4.448 9.917 9.916 9.917s9.915-4.448 9.915-9.917c0-5.467-4.447-9.914-9.915-9.914z"/><path fill="#F16A60" d="M96.358 133.94a1.334 1.334 0 11-2.667 0 1.334 1.334 0 012.667 0m6.995 0a1.334 1.334 0 11-2.669 0 1.334 1.334 0 012.669 0m-4.935 3.698c1.909 0 3.661 1.382 4.688 3.697l-.755.69c-.86-1.942-2.331-3.103-3.933-3.103-1.601 0-3.07 1.16-3.932 3.102l-.755-.689c1.026-2.315 2.778-3.697 4.687-3.697"/><path fill="#25A89D" d="M10.719 21.306C4.848 21.259.188 16.564.206 10.738A10.503 10.503 0 0110.777.235a10.498 10.498 0 0110.49 10.538c-.003 5.867-4.712 10.51-10.548 10.533m.039-19.8c-4.997-.009-9.266 3.974-9.279 9.24-.013 5.224 4.193 9.274 9.238 9.28 5.279.006 9.271-4.303 9.281-9.239.012-4.977-4.007-9.258-9.24-9.281"/><path fill="none" stroke="#25A89D" stroke-width=".25" stroke-miterlimit="10" d="M10.719 21.306C4.848 21.259.188 16.564.206 10.738A10.503 10.503 0 0110.777.235a10.498 10.498 0 0110.49 10.538c-.003 5.867-4.712 10.51-10.548 10.533zm.039-19.8c-4.997-.009-9.266 3.974-9.279 9.24-.013 5.224 4.193 9.274 9.238 9.28 5.279.006 9.271-4.303 9.281-9.239.012-4.977-4.007-9.258-9.24-9.281z"/><path fill="#25A89D" d="M10.802 16.488c-1.924-.059-3.439-.75-4.62-2.148a1.82 1.82 0 01-.234-.338.617.617 0 01.179-.777.652.652 0 01.803.023c.079.072.142.158.21.24.86 1.043 1.972 1.625 3.315 1.699 1.503.086 2.77-.453 3.779-1.582.091-.102.169-.217.267-.313a.643.643 0 01.833-.076.636.636 0 01.181.816c-.05.094-.12.178-.186.262-.965 1.16-2.182 1.879-3.678 2.105-.314.048-.633.067-.849.089"/><path fill="none" stroke="#25A89D" stroke-width=".25" stroke-miterlimit="10" d="M10.802 16.488c-1.924-.059-3.439-.75-4.62-2.148a1.82 1.82 0 01-.234-.338.617.617 0 01.179-.777.652.652 0 01.803.023c.079.072.142.158.21.24.86 1.043 1.972 1.625 3.315 1.699 1.503.086 2.77-.453 3.779-1.582.091-.102.169-.217.267-.313a.643.643 0 01.833-.076.636.636 0 01.181.816c-.05.094-.12.178-.186.262-.965 1.16-2.182 1.879-3.678 2.105-.314.048-.633.067-.849.089z"/><path fill="#25A89D" d="M9.369 8.174a.627.627 0 01-.351.533.598.598 0 01-.649-.04c-.084-.06-.152-.147-.229-.22-.442-.417-.978-.414-1.423.009-.065.06-.122.136-.193.191a.635.635 0 01-.801-.019.63.63 0 01-.16-.747.855.855 0 01.121-.191c.908-1.121 2.634-1.09 3.505.009.108.134.18.281.18.475"/><path fill="none" stroke="#25A89D" stroke-width=".25" stroke-miterlimit="10" d="M9.369 8.174a.627.627 0 01-.351.533.598.598 0 01-.649-.04c-.084-.06-.152-.147-.229-.22-.442-.417-.978-.414-1.423.009-.065.06-.122.136-.193.191a.635.635 0 01-.801-.019.63.63 0 01-.16-.747.855.855 0 01.121-.191c.908-1.121 2.634-1.09 3.505.009.108.134.18.281.18.475z"/><path fill="#25A89D" d="M13.752 6.958a2.216 2.216 0 011.72.802.708.708 0 01.192.499.6.6 0 01-.343.549.608.608 0 01-.648-.05c-.072-.052-.135-.123-.196-.191a.977.977 0 00-1.456-.015c-.063.066-.122.138-.194.192a.626.626 0 01-.797-.026.622.622 0 01-.136-.786c.053-.092.122-.179.193-.254a2.194 2.194 0 011.665-.72"/><path fill="none" stroke="#25A89D" stroke-width=".25" stroke-miterlimit="10" d="M13.752 6.958a2.216 2.216 0 011.72.802.708.708 0 01.192.499.6.6 0 01-.343.549.608.608 0 01-.648-.05c-.072-.052-.135-.123-.196-.191a.977.977 0 00-1.456-.015c-.063.066-.122.138-.194.192a.626.626 0 01-.797-.026.622.622 0 01-.136-.786c.053-.092.122-.179.193-.254a2.194 2.194 0 011.665-.72z"/></svg>